Coordinates
version=1
nRows=5
nColumns=40
inDegrees=yes

Units are S.I. units (second, meters, Newtons, ...)
If the header above contains a line with 'inDegrees', this indicates whether rotational values are in degrees (yes) or radians (no).

endheader
time	pelvis_tilt	pelvis_list	pelvis_rotation	pelvis_tx	pelvis_ty	pelvis_tz	hip_flexion_r	hip_adduction_r	hip_rotation_r	knee_angle_r	knee_angle_r_beta	ankle_angle_r	subtalar_angle_r	mtp_angle_r	hip_flexion_l	hip_adduction_l	hip_rotation_l	knee_angle_l	knee_angle_l_beta	ankle_angle_l	subtalar_angle_l	mtp_angle_l	lumbar_extension	lumbar_bending	lumbar_rotation	arm_flex_r	arm_add_r	arm_rot_r	elbow_flex_r	pro_sup_r	wrist_flex_r	wrist_dev_r	arm_flex_l	arm_add_l	arm_rot_l	elbow_flex_l	pro_sup_l	wrist_flex_l	wrist_dev_l
      3.76500000	      0.58817384	     -2.17151436	      3.39225112	     -0.35613134	      0.90711770	     -1.00389103	     55.96040196	     -6.52566420	      3.45972008	     31.60268510	      0.55157091	      8.06827115	      0.00000000	      0.00000000	     38.14491025	     -2.52832481	     -5.60358191	     69.15741089	      1.20702452	     16.80135504	      0.00000000	      0.00000000	    -14.84455618	     -3.69154939	     -5.00992278	     89.89113113	     -4.35072100	     49.27795711	     46.16394485	     83.75310061	      0.00000000	      0.00000000	     89.93065152	    -14.10977728	     49.50833630	     47.68002600	     86.99479934	      0.00000000	      0.00000000
      3.77000000	      0.55194605	     -2.17345090	      3.39479792	     -0.35616881	      0.90796870	     -1.00380048	     55.92527897	     -6.52108907	      3.45695950	     31.61384704	      0.55176572	      8.07116136	      0.00000000	      0.00000000	     38.13530850	     -2.54134437	     -5.60486806	     69.09889315	      1.20600319	     16.78092206	      0.00000000	      0.00000000	    -14.80425761	     -3.70147259	     -5.01547129	     89.89088674	     -4.34807500	     49.25205230	     46.17296730	     83.75192457	      0.00000000	      0.00000000	     89.93069008	    -14.11354542	     49.47431889	     47.69077879	     86.99149196	      0.00000000	      0.00000000
      3.77500000	      0.50752300	     -2.19725001	      3.39228654	     -0.35619187	      0.90906290	     -1.00375883	     55.89405915	     -6.49921137	      3.47495110	     31.68842258	      0.55306731	      8.02351010	      0.00000000	      0.00000000	     38.00912460	     -2.54116464	     -5.59240466	     68.69092475	      1.19888280	     16.57238799	      0.00000000	      0.00000000	    -14.75441402	     -3.66511586	     -5.01751249	     89.89074247	     -4.32380595	     49.28171836	     46.15359986	     83.75594618	      0.00000000	      0.00000000	     89.93076575	    -14.13389698	     49.47299101	     47.68031707	     86.99111451	      0.00000000	      0.00000000
      3.78000000	      0.48775283	     -2.19055621	      3.37520561	     -0.35620227	      0.91019892	     -1.00370212	     55.81344673	     -6.48512243	      3.44613690	     31.68075343	      0.55293346	      8.00350783	      0.00000000	      0.00000000	     37.90137111	     -2.52434486	     -5.57661297	     68.42202093	      1.19418955	     16.44425113	      0.00000000	      0.00000000	    -14.73215356	     -3.66573296	     -4.98922349	     89.89048511	     -4.30751554	     49.30656267	     46.10910930	     83.75822006	      0.00000000	      0.00000000	     89.93077897	    -14.13647075	     49.48748276	     47.67260384	     86.99371996	      0.00000000	      0.00000000
      3.78500000	      0.49286035	     -2.12392460	      3.35676482	     -0.35616663	      0.91119548	     -1.00365655	     55.74612294	     -6.51771286	      3.42234823	     31.71376096	      0.55350955	      8.01127121	      0.00000000	      0.00000000	     37.76490194	     -2.46077173	     -5.60895991	     68.17673584	      1.18990851	     16.30430850	      0.00000000	      0.00000000	    -14.72526121	     -3.72434841	     -4.99401316	     89.89079807	     -4.28254587	     49.32547635	     46.09775805	     83.76067556	      0.00000000	      0.00000000	     89.93090330	    -14.14925101	     49.56796383	     47.63578954	     86.99942799	      0.00000000	      0.00000000
